<!-- Fluent UI System Icons (c) Microsoft Corporation, MIT License.
     https://github.com/microsoft/fluentui-system-icons — vendored subset, fills
     stripped so icons inherit currentColor. Rebuild: see repo history. -->
<svg xmlns="http://www.w3.org/2000/svg" style="display:none">
  <symbol id="add" viewBox="0 0 24 24"><path d="M12 3.25c.41 0 .75.34.75.75v7.25H20a.75.75 0 0 1 0 1.5h-7.25V20a.75.75 0 0 1-1.5 0v-7.25H4a.75.75 0 0 1 0-1.5h7.25V4c0-.41.34-.75.75-.75Z"/></symbol>
  <symbol id="alert" viewBox="0 0 24 24"><path d="M12 2a7.5 7.5 0 0 1 7.5 7.25v4.35l1.38 3.15a1.25 1.25 0 0 1-1.15 1.75H15a3 3 0 0 1-6 .18v-.18H4.27a1.25 1.25 0 0 1-1.14-1.75L4.5 13.6V9.5C4.5 5.35 7.85 2 12 2Zm1.5 16.5h-3a1.5 1.5 0 0 0 3 .15v-.15ZM12 3.5c-3.32 0-6 2.67-6 6v4.4L4.66 17h14.7L18 13.9V9.29a5.99 5.99 0 0 0-6-5.78Z"/></symbol>
  <symbol id="back" viewBox="0 0 24 24"><path d="M10.73 19.8a.75.75 0 0 0 1.04-1.1l-6.25-5.95h14.73a.75.75 0 0 0 0-1.5H5.52l6.25-5.95a.75.75 0 0 0-1.04-1.1l-7.42 7.08a1 1 0 0 0 0 1.44l7.42 7.07Z"/></symbol>
  <symbol id="bin" viewBox="0 0 24 24"><path d="M17.38 2.34c.22.35.12.82-.22 1.04L5.3 11h4.2v-.75c0-.97.78-1.75 1.75-1.75h3.25v-.75c0-.97.78-1.75 1.75-1.75h3c.97 0 1.75.78 1.75 1.75V11h.25c.41 0 .75.34.75.75v7c0 1.8-1.46 3.25-3.25 3.25H5.25A3.25 3.25 0 0 1 2 18.75v-7c0-.26.13-.5.34-.63l14-9a.75.75 0 0 1 1.04.22ZM19.5 11V7.75a.25.25 0 0 0-.25-.25h-3a.25.25 0 0 0-.25.25V11h3.5Zm-5 0v-1h-3.25a.25.25 0 0 0-.25.25V11h3.5Zm-11 1.5v6.25c0 .97.78 1.75 1.75 1.75h13.5c.97 0 1.75-.78 1.75-1.75V12.5h-17Z"/></symbol>
  <symbol id="box-multiple" viewBox="0 0 24 24"><path d="M15.78 3.74a2.25 2.25 0 0 0-1.56 0l-4.3 1.59a.25.25 0 0 0-.17.23v2.8c-.5-.08-1-.08-1.5 0v-2.8c0-.73.46-1.38 1.14-1.64l4.31-1.59a3.75 3.75 0 0 1 2.6 0l4.3 1.6c.7.25 1.15.9 1.15 1.63v10.67c0 .74-.46 1.4-1.14 1.64l-4.02 1.49c.1-.3.16-.6.16-.93v-.73l3.34-1.23c.1-.04.16-.13.16-.24V5.56c0-.1-.07-.2-.16-.23l-4.31-1.6Zm-4.01 3.93a.75.75 0 1 1 .49-1.42l2.66.92c.05.02.1.02.16 0l2.65-.92a.75.75 0 1 1 .5 1.42l-2.66.92c-.37.12-.77.12-1.14 0l-2.66-.92Zm-6 7a.75.75 0 0 1 .49-1.42L9 14.2l2.73-.95a.75.75 0 1 1 .5 1.42l-2.48.85v2.7a.75.75 0 0 1-1.5 0v-2.7l-2.48-.85Zm4.53-5.14a3.75 3.75 0 0 0-2.6 0l-4.3 1.6c-.7.24-1.15.9-1.15 1.63v5.67c0 .73.46 1.39 1.14 1.64l4.31 1.6c.84.3 1.76.3 2.6 0l4.3-1.6c.7-.25 1.15-.9 1.15-1.64v-5.67c0-.73-.46-1.39-1.14-1.64l-4.31-1.6Zm-2.08 1.4c.5-.18 1.06-.18 1.56 0l4.3 1.6c.1.03.17.13.17.23v5.67c0 .1-.07.2-.16.24l-4.31 1.59c-.5.18-1.06.18-1.56 0l-4.3-1.6a.25.25 0 0 1-.17-.23v-5.67c0-.1.07-.2.16-.23l4.31-1.6Z"/></symbol>
  <symbol id="box" viewBox="0 0 24 24"><path d="M10.6 2.51c.9-.36 1.9-.36 2.8 0l7.5 3.04c.67.27 1.1.91 1.1 1.62v9.66c0 .71-.43 1.35-1.1 1.62l-7.5 3.04c-.9.37-1.9.37-2.8 0l-7.5-3.04c-.67-.27-1.1-.91-1.1-1.62V7.17c0-.7.43-1.35 1.1-1.62l7.5-3.04Zm2.25 1.4a2.25 2.25 0 0 0-1.7 0l-1.9.77 7.52 2.93 2.67-1.03-6.6-2.68Zm1.84 4.5L7.21 5.5 4.6 6.56 12 9.45l2.7-1.04ZM3.5 16.83c0 .1.06.2.16.23l7.5 3.04.09.04v-9.38L3.5 7.75v9.08Zm9.35 3.27 7.5-3.04c.09-.04.15-.13.15-.23V7.77l-7.75 3v9.37l.1-.04Z"/></symbol>
  <symbol id="cabinet" viewBox="0 0 24 24"><path d="M10.25 11a.75.75 0 0 0 0 1.5h3.5a.75.75 0 0 0 0-1.5h-3.5ZM3 5.25C3 4.01 4 3 5.25 3h13.5C19.99 3 21 4 21 5.25v1.5c0 .78-.4 1.47-1 1.87v8.63A3.75 3.75 0 0 1 16.25 21h-8.5A3.75 3.75 0 0 1 4 17.25V8.62c-.6-.4-1-1.09-1-1.87v-1.5ZM5.5 9v8.25c0 1.24 1 2.25 2.25 2.25h8.5c1.24 0 2.25-1 2.25-2.25V9h-13Zm-.25-4.5a.75.75 0 0 0-.75.75v1.5c0 .41.34.75.75.75h13.5c.41 0 .75-.34.75-.75v-1.5a.75.75 0 0 0-.75-.75H5.25Z"/></symbol>
  <symbol id="camera" viewBox="0 0 24 24"><path d="M13.92 2.5c.8 0 1.54.43 1.94 1.11l.82 1.4h2.07C20.55 5 22 6.45 22 8.24v9.5c0 1.8-1.46 3.25-3.25 3.25H5.25A3.25 3.25 0 0 1 2 17.75v-9.5C2 6.45 3.46 5 5.25 5h2.08l.88-1.42a2.25 2.25 0 0 1 1.91-1.08h3.8Zm0 1.5h-3.8c-.22 0-.43.1-.57.27l-.07.1-1.1 1.77a.75.75 0 0 1-.63.36h-2.5c-.97 0-1.75.78-1.75 1.75v9.5c0 .97.78 1.75 1.75 1.75h13.5c.97 0 1.75-.78 1.75-1.75v-9.5c0-.97-.78-1.75-1.75-1.75h-2.5a.75.75 0 0 1-.65-.37l-1.03-1.76a.75.75 0 0 0-.65-.37ZM12 8a4.5 4.5 0 1 1 0 9 4.5 4.5 0 0 1 0-9Zm0 1.5a3 3 0 1 0 0 6 3 3 0 0 0 0-6Z"/></symbol>
  <symbol id="cart" viewBox="0 0 24 24"><path d="M2.5 4.25c0-.41.34-.75.75-.75h.56c.95 0 1.52.64 1.84 1.23.22.4.38.86.5 1.27h12.6c.83 0 1.43.8 1.2 1.6L18.12 14a2.75 2.75 0 0 1-2.64 2H9.53a2.75 2.75 0 0 1-2.65-2.02l-.76-2.78-1.26-4.24v-.01c-.16-.57-.3-1.1-.52-1.5C4.13 5.07 3.96 5 3.8 5h-.56a.75.75 0 0 1-.75-.75Zm5.07 6.59.75 2.74c.15.54.65.92 1.21.92h5.95c.56 0 1.05-.37 1.2-.9l1.74-6.1H6.59l.97 3.29.01.05ZM11 19a2 2 0 1 1-4 0 2 2 0 0 1 4 0Zm-1.5 0a.5.5 0 1 0-1 0 .5.5 0 0 0 1 0Zm8.5 0a2 2 0 1 1-4 0 2 2 0 0 1 4 0Zm-1.5 0a.5.5 0 1 0-1 0 .5.5 0 0 0 1 0Z"/></symbol>
  <symbol id="check" viewBox="0 0 24 24"><path d="M12 2a10 10 0 1 1 0 20 10 10 0 0 1 0-20Zm0 1.5a8.5 8.5 0 1 0 0 17 8.5 8.5 0 0 0 0-17Zm-1.25 9.94 4.47-4.47a.75.75 0 0 1 1.13.98l-.07.08-5 5a.75.75 0 0 1-.98.07l-.08-.07-2.5-2.5a.75.75 0 0 1 .98-1.13l.08.07 1.97 1.97 4.47-4.47-4.47 4.47Z"/></symbol>
  <symbol id="dismiss" viewBox="0 0 24 24"><path d="m4.4 4.55.07-.08a.75.75 0 0 1 .98-.07l.08.07L12 10.94l6.47-6.47a.75.75 0 1 1 1.06 1.06L13.06 12l6.47 6.47c.27.27.3.68.07.98l-.07.08a.75.75 0 0 1-.98.07l-.08-.07L12 13.06l-6.47 6.47a.75.75 0 0 1-1.06-1.06L10.94 12 4.47 5.53a.75.75 0 0 1-.07-.98l.07-.08-.07.08Z"/></symbol>
  <symbol id="drawer" viewBox="0 0 24 24"><path d="M10.25 16.75a.75.75 0 0 0 0 1.5h3.5a.75.75 0 0 0 0-1.5h-3.5ZM8.07 3a2 2 0 0 0-1.66.9L4.34 7A2 2 0 0 0 4 8.1V11a1 1 0 0 0 1 1h.36l-.86 2c-.83 0-1.5.67-1.5 1.5v4c0 .83.67 1.5 1.5 1.5h15c.83 0 1.5-.67 1.5-1.5v-4c0-.83-.67-1.5-1.5-1.5l-.86-2H19a1 1 0 0 0 1-1V8.1a2 2 0 0 0-.34-1.1L17.6 3.9a2 2 0 0 0-1.66-.9H8.07ZM18 10.5l-.86-2h1.36v2H18Zm-2.49-2 2.34 5.45-.03.05H6.18l-.03-.05L8.5 8.5h7.02ZM17.86 7H6.14l1.51-2.28a.5.5 0 0 1 .42-.22h7.86a.5.5 0 0 1 .42.22L17.86 7Zm-11 1.5-.86 2h-.5v-2h1.36Zm-2.36 7h15v4h-15v-4Z"/></symbol>
  <symbol id="edit" viewBox="0 0 24 24"><path d="M20.95 3.05a3.58 3.58 0 0 0-5.06 0L3.94 15c-.4.4-.7.92-.82 1.48l-1.1 4.6a.75.75 0 0 0 .9.9l4.6-1.1A3.1 3.1 0 0 0 9 20.07L20.95 8.11a3.58 3.58 0 0 0 0-5.06Zm-4 1.06a2.08 2.08 0 1 1 2.94 2.94l-.89.89L16.06 5l.9-.9ZM15 6.06 17.94 9l-10 10a1.6 1.6 0 0 1-.76.43l-3.42.8.82-3.4c.06-.3.21-.56.42-.77l10-10Z"/></symbol>
  <symbol id="error" viewBox="0 0 24 24"><path d="M12 2a10 10 0 1 1 0 20 10 10 0 0 1 0-20Zm0 1.5a8.5 8.5 0 1 0 0 17 8.5 8.5 0 0 0 0-17Zm0 11a1 1 0 1 1 0 2 1 1 0 0 1 0-2ZM12 7c.37 0 .69.28.74.65v4.6a.75.75 0 0 1-1.48.1l-.01-.1v-4.5c0-.41.33-.75.74-.75Z"/></symbol>
  <symbol id="history" viewBox="0 0 24 24"><path d="M12 4.5a7.5 7.5 0 1 1-7.42 6.4c.07-.46-.26-.9-.72-.9-.37 0-.7.26-.76.62A9 9 0 1 0 6 5.3V4.25a.75.75 0 0 0-1.5 0v3c0 .41.34.75.75.75h3a.75.75 0 0 0 0-1.5H6.9a7.47 7.47 0 0 1 5.1-2Zm.5 3.25a.75.75 0 0 0-1.5 0v4.5c0 .41.34.75.75.75h3a.75.75 0 0 0 0-1.5H12.5V7.75Z"/></symbol>
  <symbol id="home" viewBox="0 0 24 24"><path d="M10.55 2.53c.84-.7 2.06-.7 2.9 0l6.75 5.7c.5.42.8 1.05.8 1.71v9.31c0 .97-.78 1.75-1.75 1.75h-3.5c-.97 0-1.75-.78-1.75-1.75v-5a.25.25 0 0 0-.25-.25h-3.5a.25.25 0 0 0-.25.25v5c0 .97-.78 1.75-1.75 1.75h-3.5C3.78 21 3 20.22 3 19.25v-9.3c0-.67.3-1.3.8-1.73l6.75-5.69Zm1.93 1.15a.75.75 0 0 0-.96 0l-6.75 5.7a.75.75 0 0 0-.27.56v9.31c0 .14.11.25.25.25h3.5c.14 0 .25-.1.25-.25v-5c0-.97.78-1.75 1.75-1.75h3.5c.97 0 1.75.78 1.75 1.75v5c0 .14.11.25.25.25h3.5c.14 0 .25-.1.25-.25v-9.3c0-.23-.1-.44-.27-.58l-6.75-5.7Z"/></symbol>
  <symbol id="image" viewBox="0 0 24 24"><path d="M17.75 3C19.55 3 21 4.46 21 6.25v11.5c0 1.8-1.46 3.25-3.25 3.25H6.25A3.25 3.25 0 0 1 3 17.75V6.25C3 4.45 4.46 3 6.25 3h11.5Zm.58 16.4-5.8-5.69a.75.75 0 0 0-.97-.07l-.08.07-5.81 5.7c.18.06.38.09.58.09h11.5c.2 0 .4-.03.58-.1l-5.8-5.69 5.8 5.7Zm-.58-14.9H6.25c-.97 0-1.75.78-1.75 1.75v11.5c0 .2.04.4.1.6l5.83-5.7a2.25 2.25 0 0 1 3.02-.12l.12.11 5.83 5.7c.06-.18.1-.38.1-.59V6.25c0-.97-.78-1.75-1.75-1.75Zm-2.5 2a2.25 2.25 0 1 1 0 4.5 2.25 2.25 0 0 1 0-4.5Zm0 1.5a.75.75 0 1 0 0 1.5.75.75 0 0 0 0-1.5Z"/></symbol>
  <symbol id="link" viewBox="0 0 24 24"><path d="M9.25 7a.75.75 0 0 1 .11 1.5H7a3.5 3.5 0 0 0-.2 7h2.45a.75.75 0 0 1 .11 1.5H7a5 5 0 0 1-.25-10h2.5ZM17 7a5 5 0 0 1 .25 10h-2.5a.75.75 0 0 1-.11-1.5H17a3.5 3.5 0 0 0 .2-7h-2.45a.75.75 0 0 1-.11-1.5H17ZM7 11.25h10a.75.75 0 0 1 .1 1.5H7a.75.75 0 0 1-.1-1.5H17 7Z"/></symbol>
  <symbol id="location" viewBox="0 0 24 24"><path d="M5.84 4.57a8.7 8.7 0 0 1 12.32 12.31l-1.19 1.18c-.87.86-2.01 1.96-3.4 3.3-.88.85-2.26.85-3.13 0l-3.5-3.39-1.1-1.09a8.7 8.7 0 0 1 0-12.31ZM17.1 5.63a7.2 7.2 0 1 0-10.2 10.2l1.5 1.46 3.08 3c.29.28.75.28 1.04 0l3.4-3.3 1.18-1.17a7.2 7.2 0 0 0 0-10.19ZM12 7.5a3.5 3.5 0 1 1 0 7 3.5 3.5 0 0 1 0-7ZM12 9a2 2 0 1 0 0 4 2 2 0 0 0 0-4Z"/></symbol>
  <symbol id="moon" viewBox="0 0 24 24"><path d="M20.03 17a10 10 0 0 1-16.9.68.75.75 0 0 1 .36-1.13c3.77-1.35 5.79-2.91 6.96-5.15 1.23-2.35 1.55-4.93.69-8.46A.75.75 0 0 1 11.9 2 10 10 0 0 1 20.03 17Zm-8.25-4.9c-1.25 2.39-3.31 4.1-6.82 5.5a8.49 8.49 0 0 0 13.77-1.35 8.5 8.5 0 0 0-5.9-12.63c.64 3.39.22 6.05-1.05 8.48Z"/></symbol>
  <symbol id="open" viewBox="0 0 24 24"><path d="M6.25 4.5c-.97 0-1.75.78-1.75 1.75v11.5c0 .97.78 1.75 1.75 1.75h11.5c.97 0 1.75-.78 1.75-1.75v-4a.75.75 0 0 1 1.5 0v4c0 1.8-1.46 3.25-3.25 3.25H6.25A3.25 3.25 0 0 1 3 17.75V6.25C3 4.45 4.46 3 6.25 3h4a.75.75 0 0 1 0 1.5h-4ZM13 3.75c0-.41.34-.75.75-.75h6.5c.41 0 .75.34.75.75v6.5a.75.75 0 0 1-1.5 0V5.56l-5.22 5.22a.75.75 0 0 1-1.06-1.06l5.22-5.22h-4.69a.75.75 0 0 1-.75-.75Z"/></symbol>
  <symbol id="person" viewBox="0 0 24 24"><path d="M17.75 14C19 14 20 15 20 16.25v.57c0 .9-.32 1.76-.9 2.44C17.53 21.1 15.15 22 12 22c-3.15 0-5.53-.9-7.1-2.74a3.75 3.75 0 0 1-.9-2.43v-.58C4 15 5.01 14 6.25 14h11.5Zm0 1.5H6.25a.75.75 0 0 0-.75.75v.58c0 .53.2 1.05.54 1.46C7.3 19.76 9.26 20.5 12 20.5c2.74 0 4.7-.74 5.96-2.21.35-.41.54-.93.54-1.47v-.57a.75.75 0 0 0-.75-.75ZM12 2a5 5 0 1 1 0 10 5 5 0 0 1 0-10Zm0 1.5a3.5 3.5 0 1 0 0 7 3.5 3.5 0 0 0 0-7Z"/></symbol>
  <symbol id="print" viewBox="0 0 24 24"><path d="M15.75 3C17 3 18 4 18 5.25V6h.75C20.55 6 22 7.46 22 9.25v6c0 1.24-1 2.25-2.24 2.25H18v1.25c0 1.24-1 2.25-2.25 2.25h-7.5C7.01 21 6 20 6 18.75V17.5H4.25c-1.24 0-2.25-1-2.25-2.25v-6C2 7.45 3.46 6 5.25 6H6v-.75C6 4.01 7 3 8.25 3h7.5Zm0 10.5h-7.5a.75.75 0 0 0-.75.75v4.5c0 .41.34.75.75.75h7.5c.41 0 .75-.34.75-.75v-4.5a.75.75 0 0 0-.75-.75Zm3-6H5.25c-.97 0-1.75.79-1.75 1.75v6c0 .41.34.75.75.75H6v-1.75C6 13.01 7 12 8.25 12h7.5c1.24 0 2.25 1 2.25 2.25V16h1.78c.4-.01.73-.34.73-.75v-6c0-.96-.8-1.75-1.76-1.75Zm-3-3h-7.5a.75.75 0 0 0-.75.75V6h9v-.75a.75.75 0 0 0-.75-.75Z"/></symbol>
  <symbol id="scanner" viewBox="0 0 24 24"><path d="M2 5.75A2.75 2.75 0 0 1 4.75 3h1.5a.75.75 0 0 1 0 1.5h-1.5c-.69 0-1.25.56-1.25 1.25v1.5a.75.75 0 0 1-1.5 0v-1.5Zm15-2c0-.41.34-.75.75-.75h1.5A2.75 2.75 0 0 1 22 5.75v1.5a.75.75 0 0 1-1.5 0v-1.5c0-.69-.56-1.25-1.25-1.25h-1.5a.75.75 0 0 1-.75-.75ZM2.75 16c.41 0 .75.34.75.75v1.5c0 .69.56 1.25 1.25 1.25h1.5a.75.75 0 0 1 0 1.5h-1.5A2.75 2.75 0 0 1 2 18.25v-1.5c0-.41.34-.75.75-.75Zm18.5 0c.41 0 .75.34.75.75v1.5A2.75 2.75 0 0 1 19.25 21h-1.5a.75.75 0 0 1 0-1.5h1.5c.69 0 1.25-.56 1.25-1.25v-1.5c0-.41.34-.75.75-.75ZM5.75 7c.41 0 .75.34.75.75v8.5a.75.75 0 0 1-1.5 0v-8.5c0-.41.34-.75.75-.75Zm4.75.75a.75.75 0 0 0-1.5 0v8.5a.75.75 0 0 0 1.5 0v-8.5ZM13.75 7c.41 0 .75.34.75.75v8.5a.75.75 0 0 1-1.5 0v-8.5c0-.41.34-.75.75-.75Zm4.75.75a.75.75 0 0 0-1.5 0v8.5a.75.75 0 0 0 1.5 0v-8.5Z"/></symbol>
  <symbol id="search" viewBox="0 0 24 24"><path d="M16.1 17.16a8 8 0 1 1 1.06-1.06l4.62 4.62a.75.75 0 1 1-1.06 1.06l-4.62-4.62ZM17.5 11a6.5 6.5 0 1 0-13 0 6.5 6.5 0 0 0 13 0Z"/></symbol>
  <symbol id="settings" viewBox="0 0 24 24"><path d="M12.01 2.25c.74 0 1.47.1 2.18.25.32.07.55.33.59.65l.17 1.53a1.38 1.38 0 0 0 1.92 1.11l1.4-.61c.3-.13.64-.06.85.17a9.8 9.8 0 0 1 2.2 3.8c.1.3 0 .63-.26.82l-1.25.92a1.38 1.38 0 0 0 0 2.22l1.25.92c.26.19.36.52.27.82a9.8 9.8 0 0 1-2.2 3.8.75.75 0 0 1-.85.17l-1.4-.62a1.38 1.38 0 0 0-1.93 1.12l-.17 1.52a.75.75 0 0 1-.58.65 9.52 9.52 0 0 1-4.4 0 .75.75 0 0 1-.57-.65l-.17-1.52a1.38 1.38 0 0 0-1.93-1.11l-1.4.62a.75.75 0 0 1-.85-.18 9.8 9.8 0 0 1-2.2-3.8c-.1-.3 0-.63.26-.82l1.25-.92a1.38 1.38 0 0 0 0-2.22l-1.24-.92a.75.75 0 0 1-.28-.82 9.8 9.8 0 0 1 2.2-3.8c.23-.23.57-.3.86-.17l1.4.62c.4.17.86.15 1.25-.08.38-.22.63-.6.68-1.04l.17-1.53a.75.75 0 0 1 .58-.65c.72-.16 1.45-.24 2.2-.25Zm0 1.5c-.45 0-.9.04-1.35.12l-.11.97a2.89 2.89 0 0 1-4.03 2.33l-.9-.4A8.3 8.3 0 0 0 4.29 9.1l.8.59a2.88 2.88 0 0 1 0 4.64l-.8.59a8.3 8.3 0 0 0 1.35 2.32l.9-.4a2.88 2.88 0 0 1 4.02 2.32l.1.99c.9.15 1.8.15 2.7 0l.1-.99a2.88 2.88 0 0 1 4.02-2.32l.9.4a8.3 8.3 0 0 0 1.35-2.32l-.8-.59a2.88 2.88 0 0 1 0-4.64l.8-.59a8.3 8.3 0 0 0-1.35-2.32l-.9.4a2.88 2.88 0 0 1-4.02-2.32l-.1-.98c-.45-.08-.9-.11-1.34-.12ZM12 8.25a3.75 3.75 0 1 1 0 7.5 3.75 3.75 0 0 1 0-7.5Zm0 1.5a2.25 2.25 0 1 0 0 4.5 2.25 2.25 0 0 0 0-4.5Z"/></symbol>
  <symbol id="shelf" viewBox="0 0 24 24"><path d="M4 3h1a2 2 0 0 1 2 1.85V19a2 2 0 0 1-1.85 2H4a2 2 0 0 1-2-1.85V5a2 2 0 0 1 1.85-2H5 4Zm6 0h1a2 2 0 0 1 2 1.85V19a2 2 0 0 1-1.85 2H10a2 2 0 0 1-2-1.85V5a2 2 0 0 1 1.85-2H11h-1Zm6.97 2a2 2 0 0 1 1.9 1.35l.04.15 3.02 11.75a2 2 0 0 1-1.3 2.39l-.14.04-.97.25a2 2 0 0 1-2.39-1.28l-.05-.16-3.01-11.74a2 2 0 0 1 1.3-2.4l.14-.04.97-.25c.16-.04.33-.06.5-.06ZM5 4.5H4a.5.5 0 0 0-.5.41V19c0 .24.18.45.41.5H5a.5.5 0 0 0 .5-.41V5a.5.5 0 0 0-.41-.5H5Zm6 0h-1a.5.5 0 0 0-.5.41V19c0 .24.18.45.41.5H11a.5.5 0 0 0 .5-.41V5a.5.5 0 0 0-.41-.5H11Zm5.98 2h-.07l-.06.02-.97.24a.5.5 0 0 0-.38.51l.02.1 3.02 11.75c.06.26.3.37.48.37h.06l.06-.01.97-.25a.5.5 0 0 0 .38-.52l-.02-.09-3.01-11.74a.5.5 0 0 0-.48-.38Z"/></symbol>
  <symbol id="star-filled" viewBox="0 0 24 24"><path d="M10.79 3.1c.5-1 1.92-1 2.42 0l2.36 4.78 5.27.77c1.1.16 1.55 1.52.75 2.3l-3.82 3.72.9 5.25a1.35 1.35 0 0 1-1.96 1.42L12 18.86l-4.72 2.48a1.35 1.35 0 0 1-1.96-1.42l.9-5.25-3.81-3.72c-.8-.78-.36-2.14.75-2.3l5.27-.77 2.36-4.78Z"/></symbol>
  <symbol id="star" viewBox="0 0 24 24"><path d="M10.79 3.1c.5-1 1.92-1 2.42 0l2.36 4.78 5.27.77c1.1.16 1.55 1.52.75 2.3l-3.82 3.72.9 5.25a1.35 1.35 0 0 1-1.96 1.42L12 18.86l-4.72 2.48a1.35 1.35 0 0 1-1.96-1.42l.9-5.25-3.81-3.72c-.8-.78-.36-2.14.75-2.3l5.27-.77 2.36-4.78Zm1.2.94L9.75 8.6c-.2.4-.58.68-1.02.74l-5.05.74 3.66 3.56c.32.3.46.76.39 1.2l-.87 5.02 4.52-2.37c.4-.2.86-.2 1.26 0l4.51 2.37-.86-5.03c-.07-.43.07-.88.39-1.2l3.65-3.55-5.05-.74a1.35 1.35 0 0 1-1.01-.74L12 4.04Z"/></symbol>
  <symbol id="subtract" viewBox="0 0 24 24"><path d="M3.75 12.5h16.5a.75.75 0 0 0 0-1.5H3.75a.75.75 0 0 0 0 1.5Z"/></symbol>
  <symbol id="sun" viewBox="0 0 24 24"><path d="M12 2c.41 0 .75.34.75.75v1.5a.75.75 0 0 1-1.5 0v-1.5c0-.41.34-.75.75-.75Zm0 15a5 5 0 1 0 0-10 5 5 0 0 0 0 10Zm0-1.5a3.5 3.5 0 1 1 0-7 3.5 3.5 0 0 1 0 7Zm9.25-2.75a.75.75 0 0 0 0-1.5h-1.5a.75.75 0 0 0 0 1.5h1.5ZM12 19c.41 0 .75.34.75.75v1.5a.75.75 0 0 1-1.5 0v-1.5c0-.41.34-.75.75-.75Zm-7.75-6.25a.75.75 0 0 0 0-1.5h-1.5a.75.75 0 0 0 0 1.5h1.5Zm-.03-8.53c.3-.3.77-.3 1.06 0l1.5 1.5a.75.75 0 0 1-1.06 1.06l-1.5-1.5a.75.75 0 0 1 0-1.06Zm1.06 15.56a.75.75 0 1 1-1.06-1.06l1.5-1.5a.75.75 0 1 1 1.06 1.06l-1.5 1.5Zm14.5-15.56a.75.75 0 0 0-1.06 0l-1.5 1.5a.75.75 0 0 0 1.06 1.06l1.5-1.5c.3-.3.3-.77 0-1.06Zm-1.06 15.56a.75.75 0 1 0 1.06-1.06l-1.5-1.5a.75.75 0 1 0-1.06 1.06l1.5 1.5Z"/></symbol>
  <symbol id="tag" viewBox="0 0 24 24"><path d="M19.75 2C20.99 2 22 3 22 4.25v5.46c0 .86-.34 1.69-.95 2.3l-8.5 8.5a3.25 3.25 0 0 1-4.6 0L3.5 16.06a3.25 3.25 0 0 1 0-4.6l8.5-8.5a3.25 3.25 0 0 1 2.3-.96h5.46Zm0 1.5h-5.47c-.46 0-.9.18-1.23.51l-8.52 8.53c-.67.68-.66 1.78.02 2.46L9 19.45c.68.68 1.8.68 2.48 0l8.5-8.5c.33-.33.51-.77.51-1.24V4.25a.75.75 0 0 0-.75-.75ZM17 5.5a1.5 1.5 0 1 1 0 3 1.5 1.5 0 0 1 0-3Z"/></symbol>
  <symbol id="toolbox" viewBox="0 0 24 24"><path d="M7 6.25V7H4.25C3.01 7 2 8 2 9.25v8.5C2 18.99 3 20 4.25 20h15.5c1.24 0 2.25-1.01 2.25-2.25v-8.5C22 8.01 21 7 19.75 7H17v-.75C17 5.01 16 4 14.75 4h-5.5C8.01 4 7 5.01 7 6.25Zm2.25-.75h5.5c.41 0 .75.34.75.75V7h-7v-.75c0-.41.34-.75.75-.75ZM7 8.5h12.75c.41 0 .75.34.75.75v2.25h-3v-.75a.75.75 0 0 0-1.5 0v.75H8v-.75a.75.75 0 0 0-1.5 0v.75h-3V9.25c0-.41.34-.75.75-.75H7Zm9 4.5v1.25a.75.75 0 0 0 1.5 0V13h3v4.75c0 .41-.34.75-.75.75H4.25a.75.75 0 0 1-.75-.75V13h3v1.25a.75.75 0 0 0 1.5 0V13h8Z"/></symbol>
  <symbol id="warning" viewBox="0 0 24 24"><path d="M9.14 3.7a3.25 3.25 0 0 1 5.72 0l6.74 12.5a3.25 3.25 0 0 1-2.86 4.8H5.25a3.25 3.25 0 0 1-2.86-4.8L9.14 3.7Zm4.4.72a1.75 1.75 0 0 0-3.08 0L3.7 16.92a1.75 1.75 0 0 0 1.54 2.58h13.5a1.75 1.75 0 0 0 1.53-2.58l-6.74-12.5ZM12 15a1 1 0 1 1 0 2 1 1 0 0 1 0-2Zm0-7.5c.41 0 .75.34.75.75v4.5a.75.75 0 0 1-1.5 0v-4.5c0-.41.34-.75.75-.75Z"/></symbol>
  <symbol id="wrench-reg" viewBox="0 0 24 24"><path d="M11 7.5a5.5 5.5 0 0 1 7.66-5.06.75.75 0 0 1 .24 1.22L16.3 6.25l1.44 1.44 2.59-2.59a.75.75 0 0 1 1.22.24 5.49 5.49 0 0 1-6.35 7.5l-8.3 8.32a2.87 2.87 0 1 1-4.07-4.06l8.31-8.31c-.1-.42-.15-.85-.15-1.29Zm5.5-4a4 4 0 0 0-3.8 5.27c.1.27.03.57-.18.77L3.9 18.16a1.37 1.37 0 0 0 1.94 1.94l8.63-8.62c.2-.2.5-.27.76-.18a4 4 0 0 0 5.25-4.22l-1.85 1.85c-.48.48-1.28.48-1.76 0l-1.8-1.8a1.25 1.25 0 0 1 0-1.76l1.85-1.85a4.06 4.06 0 0 0-.42-.02Z"/></symbol>
  <symbol id="wrench" viewBox="0 0 24 24"><path d="M16.5 2a5.5 5.5 0 0 0-5.35 6.79l-8.3 8.31a2.87 2.87 0 1 0 4.05 4.06l8.31-8.31a5.51 5.51 0 0 0 6.5-7.1.75.75 0 0 0-1.23-.29l-2.45 2.45c-.3.29-.77.29-1.06 0l-.88-.88a.75.75 0 0 1 0-1.06l2.45-2.45a.75.75 0 0 0-.3-1.24A5.5 5.5 0 0 0 16.5 2Z"/></symbol>
</svg>
